# SSTK version 0.8.0
# 3
mtllib original-3.mtl
o mesh2/mesh2-geometry#mesh2-geometry
v -0.437651 -0.108374 0.051875
v -0.437547 -0.831079 0.443448
v -0.437651 -0.825781 0.452925
v -0.437444 -0.836377 0.433971
v -0.412773 -0.825781 0.452925
v -0.425212 -0.825737 0.453004
v -0.437444 -0.118969 0.032921
v -0.412773 -0.825693 0.453083
v -0.437651 0.628766 -0.360207
v -0.425005 -0.836333 0.434050
v -0.412773 -0.108285 0.052032
v -0.437444 0.618156 -0.379153
v -0.412566 -0.836289 0.434129
v -0.412773 0.627145 -0.359093
v -0.427891 0.682545 -0.390271
v -0.412566 -0.118881 0.033078
v -0.412670 -0.830991 0.443606
v -0.404148 0.674677 -0.385665
v -0.427694 0.671883 -0.409188
v -0.412566 0.616535 -0.378040
v -0.393002 0.729438 -0.416486
v -0.403950 0.664015 -0.404582
v -0.375018 0.713829 -0.407552
v -0.392853 0.718712 -0.435367
v -0.374869 0.703103 -0.426433
v -0.339279 0.759892 -0.433510
v -0.330164 0.739255 -0.421766
v -0.339203 0.749124 -0.452368
v -0.330088 0.728487 -0.440624
v -0.277667 0.768411 -0.438272
v -0.275709 0.746784 -0.425975
v -0.277650 0.757634 -0.457125
v -0.275692 0.736008 -0.444828
v 0.263050 0.768411 -0.438272
v 0.263034 0.757634 -0.457125
v 0.261076 0.736008 -0.444828
v 0.261092 0.746784 -0.425975
v 0.324586 0.749124 -0.452368
v 0.324662 0.759892 -0.433510
v 0.315472 0.728487 -0.440624
v 0.315547 0.739255 -0.421766
v 0.378236 0.718712 -0.435367
v 0.378386 0.729438 -0.416486
v 0.360252 0.703103 -0.426433
v 0.360402 0.713829 -0.407552
v 0.413077 0.671883 -0.409188
v 0.413275 0.682545 -0.390271
v 0.389334 0.664015 -0.404582
v 0.389531 0.674677 -0.385665
v 0.422827 0.618156 -0.379153
v 0.423034 0.628766 -0.360207
v 0.397950 0.616535 -0.378040
v 0.398157 0.627145 -0.359093
v 0.422827 -0.118969 0.032921
v 0.398157 -0.108285 0.052032
v 0.423034 -0.108374 0.051875
v 0.397950 -0.118881 0.033078
v 0.422827 -0.835683 0.433583
v 0.397950 -0.835595 0.433741
v 0.398157 -0.824999 0.452695
v 0.423034 -0.825087 0.452537
vn -0.7130207736694169 0.3421278914000712 0.6120048057344055
vn -0.9999545506140263 -0.00465199790936237 -0.008321996260041629
vn -0.701142730987712 -0.34792386650964013 -0.6223727612099319
vn 0.7130207736694169 -0.3421278914000712 -0.6120048057344055
vn 0.9999545506140263 0.00465199790936237 0.008321996260041629
vn 0.701142730987712 0.34792386650964013 0.6223727612099319
vn 0 -0.8728677471856774 0.48795685866990357
vn 0 0.8728677471856774 -0.48795685866990357
vn -0.0072639981590960755 0.48794387634113084 0.8728447787962852
vn 0.0072639981590960755 -0.48794387634113084 -0.8728447787962852
vn 0.7011358220987269 0.34792691171947193 0.6223788420819694
vn -0.7011358220987269 -0.34792691171947193 -0.6223788420819694
vn 0.7130270733152301 -0.3421250351781532 -0.6119990629272771
vn -0.7130270733152301 0.3421250351781532 0.6119990629272771
vn 0.9999543753424448 0.004661001749551613 0.008338003129749274
vn -0.9999543753424448 -0.004661001749551613 -0.008338003129749274
vn -0.6583885779539634 0.5665586368195998 0.4955156823601795
vn -0.692508860145426 -0.25217494907239135 -0.6758988634998727
vn -0.7042408544795582 0.4394979091845786 0.5575718847864244
vn 0.7042408544795582 -0.4394979091845786 -0.5575718847864244
vn 0.692508860145426 0.25217494907239135 0.6758988634998727
vn 0.6583885779539634 -0.5665586368195998 -0.4955156823601795
vn 0.647179878741477 0.1348269747382135 0.7503198594167079
vn -0.647179878741477 -0.1348269747382135 -0.7503198594167079
vn -0.49867496478008444 0.7812269448242863 0.37550997347885817
vn 0.49867496478008444 -0.7812269448242863 -0.37550997347885817
vn 0.49018517834288045 -0.07618602771857724 0.8682823159050418
vn -0.49018517834288045 0.07618602771857724 -0.8682823159050418
vn -0.2527399718163355 0.9206358973375952 0.29757696681645057
vn 0.2527399718163355 -0.9206358973375952 -0.29757696681645057
vn 0.24843702651146182 -0.21322202275356314 0.944889100831956
vn -0.24843702651146182 0.21322202275356314 -0.944889100831956
vn -0.11155305711908424 0.9568364899338976 0.2683651374123786
vn 0.11155305711908424 -0.9568364899338976 -0.2683651374123786
vn 0.10969396486963584 -0.2565439178397714 0.9602876924602335
vn -0.10969396486963584 0.2565439178397714 -0.9602876924602335
vn 0 0.9645005401445776 0.26408087409128705
vn 0 0.26408087409128705 -0.9645005401445776
vn 0 -0.9645005401445776 -0.26408087409128705
vn 0 -0.26408087409128705 0.9645005401445776
vn 0.11155305711908424 0.9568364899338976 0.2683651374123786
vn 0.24843702651146182 0.21322202275356314 -0.944889100831956
vn 0.10969396486963584 0.2565439178397714 -0.9602876924602335
vn -0.10969396486963584 -0.2565439178397714 0.9602876924602335
vn -0.24843702651146182 -0.21322202275356314 0.944889100831956
vn -0.11155305711908424 -0.9568364899338976 -0.2683651374123786
vn 0.2527399718163355 0.9206358973375952 0.29757696681645057
vn -0.2527399718163355 -0.9206358973375952 -0.29757696681645057
vn 0.49018517834288045 0.07618602771857724 -0.8682823159050418
vn -0.49018517834288045 -0.07618602771857724 0.8682823159050418
vn 0.49867496478008444 0.7812269448242863 0.37550997347885817
vn -0.49867496478008444 -0.7812269448242863 -0.37550997347885817
vn 0.647179878741477 -0.1348269747382135 -0.7503198594167079
vn -0.647179878741477 0.1348269747382135 0.7503198594167079
vn 0.6583885779539634 0.5665586368195998 0.4955156823601795
vn -0.6583885779539634 -0.5665586368195998 -0.4955156823601795
vn 0.692508860145426 -0.25217494907239135 -0.6758988634998727
vn -0.692508860145426 0.25217494907239135 0.6758988634998727
vn 0.7042408544795582 0.4394979091845786 0.5575718847864244
vn -0.7042408544795582 -0.4394979091845786 -0.5575718847864244
vn 0.7130207736694169 0.3421278914000712 0.6120048057344055
vn 0.701142730987712 -0.34792386650964013 -0.6223727612099319
vn -0.701142730987712 0.34792386650964013 0.6223727612099319
vn -0.7130207736694169 -0.3421278914000712 -0.6120048057344055
usemtl material_0_0
f 1//1 2//2 3//1
f 2//2 1//1 4//3
f 3//4 2//5 1//4
f 4//6 1//4 2//5
f 2//7 5//7 3//7
f 3//8 5//8 2//8
f 6//9 1//1 3//1
f 3//4 1//4 6//10
f 4//3 1//1 7//3
f 7//6 1//4 4//6
f 5//7 2//7 4//7
f 4//8 2//8 5//8
f 1//1 6//9 8//11
f 8//12 6//10 1//4
f 7//3 1//1 9//1
f 9//4 1//4 7//6
f 7//3 10//10 4//3
f 4//6 10//9 7//6
f 5//7 4//7 10//7
f 10//8 4//8 5//8
f 1//1 8//11 11//11
f 11//12 8//12 1//4
f 1//1 11//11 9//1
f 9//4 11//12 1//4
f 7//3 9//1 12//3
f 12//6 9//4 7//6
f 10//10 7//3 13//13
f 13//14 7//6 10//9
f 5//7 10//7 13//7
f 13//8 10//8 5//8
f 5//15 11//11 8//11
f 8//12 11//12 5//16
f 9//1 11//11 14//11
f 14//12 11//12 9//4
f 15//17 12//18 9//19
f 9//20 12//21 15//22
f 16//13 7//3 12//3
f 12//6 7//6 16//14
f 13//13 7//3 16//13
f 16//14 7//6 13//14
f 5//7 13//7 17//7
f 17//8 13//8 5//8
f 11//11 5//15 17//15
f 17//16 5//16 11//12
f 11//11 16//13 14//11
f 14//12 16//14 11//12
f 18//23 9//19 14//21
f 14//18 9//20 18//24
f 12//18 15//17 19//24
f 19//23 15//22 12//21
f 9//19 18//23 15//17
f 15//22 18//24 9//20
f 16//13 12//3 20//13
f 20//14 12//6 16//14
f 11//11 13//13 16//13
f 16//14 13//14 11//12
f 11//11 17//15 13//13
f 13//14 17//16 11//12
f 14//11 16//13 20//13
f 20//14 16//14 14//12
f 20//20 18//23 14//21
f 14//18 18//24 20//19
f 21//25 19//24 15//17
f 15//22 19//23 21//26
f 22//22 12//18 19//24
f 19//23 12//21 22//17
f 23//27 15//17 18//23
f 18//24 15//22 23//28
f 12//18 22//22 20//20
f 20//19 22//17 12//21
f 18//23 20//20 22//22
f 22//17 20//19 18//24
f 19//24 21//25 24//28
f 24//27 21//26 19//23
f 15//17 23//27 21//25
f 21//26 23//28 15//22
f 19//24 25//26 22//22
f 22//17 25//25 19//23
f 22//22 23//27 18//23
f 18//24 23//28 22//17
f 26//29 24//28 21//25
f 21//26 24//27 26//30
f 25//26 19//24 24//28
f 24//27 19//23 25//25
f 27//31 21//25 23//27
f 23//28 21//26 27//32
f 23//27 22//22 25//26
f 25//25 22//17 23//28
f 24//28 26//29 28//32
f 28//31 26//30 24//27
f 21//25 27//31 26//29
f 26//30 27//32 21//26
f 24//28 29//30 25//26
f 25//25 29//29 24//27
f 25//26 27//31 23//27
f 23//28 27//32 25//25
f 30//33 28//32 26//29
f 26//30 28//31 30//34
f 29//30 24//28 28//32
f 28//31 24//27 29//29
f 31//35 26//29 27//31
f 27//32 26//30 31//36
f 27//31 25//26 29//30
f 29//29 25//25 27//32
f 28//32 30//33 32//36
f 32//35 30//34 28//31
f 26//29 31//35 30//33
f 30//34 31//36 26//30
f 28//32 33//34 29//30
f 29//29 33//33 28//31
f 29//30 31//35 27//31
f 27//32 31//36 29//29
f 34//37 32//38 30//37
f 30//39 32//40 34//39
f 33//34 28//32 32//36
f 32//35 28//31 33//33
f 31//40 34//37 30//37
f 30//39 34//39 31//38
f 31//35 29//30 33//34
f 33//33 29//29 31//36
f 32//38 34//37 35//38
f 35//40 34//39 32//40
f 32//38 36//39 33//39
f 33//37 36//37 32//40
f 34//37 31//40 37//40
f 37//38 31//38 34//39
f 33//39 37//40 31//40
f 31//38 37//38 33//37
f 34//41 38//42 35//43
f 35//44 38//45 34//46
f 36//39 32//38 35//38
f 35//40 32//40 36//37
f 37//40 33//39 36//39
f 36//37 33//37 37//38
f 37//44 39//47 34//41
f 34//46 39//48 37//43
f 38//42 34//41 39//47
f 39//48 34//46 38//45
f 38//42 36//46 35//43
f 35//44 36//41 38//45
f 40//48 37//44 36//46
f 36//41 37//43 40//47
f 39//47 37//44 41//45
f 41//42 37//43 39//48
f 39//47 42//49 38//42
f 38//45 42//50 39//48
f 36//46 38//42 40//48
f 40//47 38//45 36//41
f 37//44 40//48 41//45
f 41//42 40//47 37//43
f 41//45 43//51 39//47
f 39//48 43//52 41//42
f 42//49 39//47 43//51
f 43//52 39//48 42//50
f 42//49 40//48 38//42
f 38//45 40//47 42//50
f 44//52 41//45 40//48
f 40//47 41//42 44//51
f 43//51 41//45 45//50
f 45//49 41//42 43//52
f 43//51 46//53 42//49
f 42//50 46//54 43//52
f 40//48 42//49 44//52
f 44//51 42//50 40//47
f 41//45 44//52 45//50
f 45//49 44//51 41//42
f 45//50 47//55 43//51
f 43//52 47//56 45//49
f 46//53 43//51 47//55
f 47//56 43//52 46//54
f 46//53 44//52 42//49
f 42//50 44//51 46//54
f 48//56 45//50 44//52
f 44//51 45//49 48//55
f 47//55 45//50 49//54
f 49//53 45//49 47//56
f 47//55 50//57 46//53
f 46//54 50//58 47//56
f 44//52 46//53 48//56
f 48//55 46//54 44//51
f 45//50 48//56 49//54
f 49//53 48//55 45//49
f 49//54 51//59 47//55
f 47//56 51//60 49//53
f 50//57 47//55 51//59
f 51//60 47//56 50//58
f 50//57 48//56 46//53
f 46//54 48//55 50//58
f 52//60 49//54 48//56
f 48//55 49//53 52//59
f 51//59 49//54 53//58
f 53//57 49//53 51//60
f 51//61 54//62 50//62
f 50//63 54//63 51//64
f 48//56 50//57 52//60
f 52//59 50//58 48//55
f 49//54 52//60 53//58
f 53//57 52//59 49//53
f 55//63 51//61 53//63
f 53//62 51//64 55//62
f 56//61 54//62 51//61
f 51//64 54//63 56//64
f 54//62 57//64 50//62
f 50//63 57//61 54//63
f 50//62 57//64 52//64
f 52//61 57//61 50//63
f 57//64 53//63 52//64
f 52//61 53//62 57//61
f 55//63 56//61 51//61
f 51//64 56//64 55//62
f 57//64 55//63 53//63
f 53//62 55//62 57//61
f 56//61 58//62 54//62
f 54//63 58//63 56//64
f 54//62 59//64 57//64
f 57//61 59//61 54//63
f 60//63 56//61 55//63
f 55//62 56//64 60//62
f 59//64 55//63 57//64
f 57//61 55//62 59//61
f 58//62 56//61 61//61
f 61//64 56//64 58//63
f 59//64 54//62 58//62
f 58//63 54//63 59//61
f 56//61 60//63 61//61
f 61//64 60//62 56//64
f 55//63 59//64 60//63
f 60//62 59//61 55//62
