# SSTK version 0.8.0
# 18
mtllib original-18.mtl
o Group18/mesh26/mesh26-geometry#mesh26-geometry
v -0.431383 0.049144 -0.071651
v -0.437548 0.036929 -0.068329
v -0.431383 0.046003 -0.059502
v -0.437548 0.040043 -0.080372
v -0.437548 0.033814 -0.056286
v -0.418835 0.049144 -0.071651
v -0.425109 0.040043 -0.080372
v -0.425109 0.033814 -0.056286
v -0.418835 0.046003 -0.059502
v -0.412670 0.040043 -0.080372
v -0.412670 0.036929 -0.068329
v -0.412670 0.033814 -0.056286
vn -0.45305118067435507 0.856761341671779 -0.24638309825624388
vn -0.8722358972532341 0.47350694422230577 0.12245698557493542
vn -0.3741489693538333 0.7278359403836883 0.5746889529278045
vn -0.5540479035668627 0.7402698711545598 -0.380829933715794
vn -0.554048247626102 0.4628242068544657 0.6919713092693802
vn 0.3741490966490847 0.9151942364102601 -0.14977303868892683
vn 0 0.6918971097954314 -0.7219961145717674
vn 0 0.25511611205263335 0.9669104246884238
vn 0.4530510687174321 0.6298910955399988 0.6308580956866707
vn 0.5540479035668627 0.7402698711545598 -0.380829933715794
vn 0.8722358972532341 0.47350694422230577 0.12245698557493542
vn 0.554048247626102 0.4628242068544657 0.6919713092693802
vn 0.3741489693538333 -0.7278359403836883 -0.5746889529278045
vn 0.8722358972532341 -0.47350694422230577 -0.12245698557493542
vn 0.45305118067435507 -0.856761341671779 0.24638309825624388
vn 0.5540479035668627 -0.7402698711545598 0.380829933715794
vn 0.554048247626102 -0.4628242068544657 -0.6919713092693802
vn -0.3741490966490847 -0.9151942364102601 0.14977303868892683
vn 0 -0.6918971097954314 0.7219961145717674
vn 0 -0.25511611205263335 -0.9669104246884238
vn -0.4530510687174321 -0.6298910955399988 -0.6308580956866707
vn -0.5540479035668627 -0.7402698711545598 0.380829933715794
vn -0.8722358972532341 -0.47350694422230577 -0.12245698557493542
vn -0.554048247626102 -0.4628242068544657 -0.6919713092693802
usemtl material_0_0
f 1//1 2//2 3//3
f 4//4 2//2 1//1
f 2//2 5//5 3//3
f 6//6 1//1 3//3
f 1//1 7//7 4//4
f 3//3 5//5 8//8
f 6//6 7//7 1//1
f 6//6 3//3 9//9
f 3//3 8//8 9//9
f 6//6 10//10 7//7
f 6//6 9//9 11//11
f 9//9 8//8 12//12
f 10//10 6//6 11//11
f 11//11 9//9 12//12
usemtl material_1_0
f 3//13 2//14 1//15
f 1//15 2//14 4//16
f 3//13 5//17 2//14
f 3//13 1//15 6//18
f 4//16 7//19 1//15
f 8//20 5//17 3//13
f 1//15 7//19 6//18
f 9//21 3//13 6//18
f 9//21 8//20 3//13
f 7//19 10//22 6//18
f 11//23 9//21 6//18
f 12//24 8//20 9//21
f 11//23 6//18 10//22
f 12//24 9//21 11//23
