# SSTK version 0.8.0
# 6
mtllib original-6.mtl
o Group4/mesh5/mesh5-geometry#mesh5-geometry
v 0.425689 -0.120552 0.036275
v 0.426377 -0.121231 0.036043
v 0.425689 -0.121231 0.036043
v 0.426377 -0.120552 0.036275
v 0.426377 -0.121947 0.035994
v 0.425689 -0.122651 0.036132
v 0.425689 -0.119957 0.036675
v 0.426377 -0.122651 0.036132
v 0.425689 -0.121947 0.035994
v 0.425689 -0.123296 0.036447
v 0.426377 -0.119957 0.036675
v 0.426377 -0.123296 0.036447
v 0.426377 -0.119485 0.037216
v 0.425689 -0.123836 0.036919
v 0.426377 -0.123836 0.036919
v 0.425689 -0.119485 0.037216
v 0.426377 -0.120909 0.036993
v 0.426377 -0.121897 0.036794
v 0.426377 -0.122396 0.036892
v 0.426377 -0.119170 0.037861
v 0.426377 -0.120487 0.037277
v 0.426377 -0.121390 0.036829
v 0.425689 -0.124237 0.037514
v 0.426377 -0.122852 0.037115
v 0.425689 -0.119170 0.037861
v 0.426377 -0.120153 0.037660
v 0.427064 -0.120909 0.036993
v 0.425689 -0.120487 0.037277
v 0.427064 -0.121390 0.036829
v 0.425689 -0.120909 0.036993
v 0.425689 -0.121897 0.036794
v 0.427064 -0.122396 0.036892
v 0.427064 -0.121897 0.036794
v 0.425689 -0.121390 0.036829
v 0.426377 -0.124237 0.037514
v 0.426377 -0.123235 0.037449
v 0.427064 -0.122852 0.037115
v 0.425689 -0.122396 0.036892
v 0.426377 -0.119031 0.038565
v 0.426377 -0.119929 0.038116
v 0.427064 -0.120153 0.037660
v 0.427064 -0.120487 0.037277
v 0.425689 -0.124469 0.038193
v 0.426377 -0.124469 0.038193
v 0.427064 -0.123235 0.037449
v 0.425689 -0.122852 0.037115
v 0.425689 -0.119031 0.038565
v 0.427064 -0.119929 0.038116
v 0.425689 -0.120153 0.037660
v 0.426377 -0.123519 0.037871
v 0.425689 -0.123235 0.037449
v 0.426377 -0.119080 0.039281
v 0.426377 -0.119832 0.038615
v 0.427064 -0.119832 0.038615
v 0.425689 -0.119929 0.038116
v 0.427064 -0.123519 0.037871
v 0.425689 -0.124518 0.038909
v 0.426377 -0.124518 0.038909
v 0.425689 -0.123519 0.037871
v 0.426377 -0.123683 0.038352
v 0.425689 -0.119080 0.039281
v 0.426377 -0.119866 0.039122
v 0.427064 -0.123683 0.038352
v 0.426377 -0.123718 0.038859
v 0.426377 -0.119313 0.039960
v 0.426377 -0.120031 0.039603
v 0.427064 -0.119866 0.039122
v 0.425689 -0.119832 0.038615
v 0.427064 -0.123718 0.038859
v 0.425689 -0.124380 0.039613
v 0.426377 -0.124380 0.039613
v 0.426377 -0.123620 0.039358
v 0.425689 -0.123683 0.038352
v 0.425689 -0.119313 0.039960
v 0.427064 -0.120031 0.039603
v 0.425689 -0.119866 0.039122
v 0.425689 -0.123718 0.038859
v 0.427064 -0.123620 0.039358
v 0.425689 -0.119713 0.040555
v 0.426377 -0.120315 0.040025
v 0.425689 -0.120031 0.039603
v 0.425689 -0.124064 0.040258
v 0.426377 -0.124064 0.040258
v 0.426377 -0.123397 0.039814
v 0.425689 -0.123620 0.039358
v 0.427064 -0.123397 0.039814
v 0.426377 -0.119713 0.040555
v 0.426377 -0.120698 0.040359
v 0.425689 -0.120315 0.040025
v 0.427064 -0.120315 0.040025
v 0.426377 -0.123063 0.040197
v 0.426377 -0.120254 0.041027
v 0.425689 -0.123593 0.040799
v 0.427064 -0.120698 0.040359
v 0.426377 -0.123593 0.040799
v 0.426377 -0.122641 0.040481
v 0.425689 -0.123397 0.039814
v 0.427064 -0.123063 0.040197
v 0.425689 -0.120254 0.041027
v 0.426377 -0.121653 0.040680
v 0.426377 -0.121154 0.040582
v 0.425689 -0.120698 0.040359
v 0.427064 -0.121154 0.040582
v 0.426377 -0.122160 0.040645
v 0.425689 -0.122641 0.040481
v 0.425689 -0.123063 0.040197
v 0.426377 -0.120898 0.041342
v 0.425689 -0.122997 0.041199
v 0.427064 -0.122641 0.040481
v 0.425689 -0.122160 0.040645
v 0.425689 -0.120898 0.041342
v 0.426377 -0.122997 0.041199
v 0.425689 -0.121154 0.040582
v 0.427064 -0.121653 0.040680
v 0.427064 -0.122160 0.040645
v 0.425689 -0.121653 0.040680
v 0.426377 -0.121603 0.041480
v 0.426377 -0.122318 0.041431
v 0.425689 -0.122318 0.041431
v 0.425689 -0.121603 0.041480
vn 0 0.44476311873553487 -0.8956482391054204
vn 0 0.19779796164173757 -0.9802428099049613
vn 0 -0.19779796164173757 0.9802428099049613
vn 0 -0.44476311873553487 0.8956482391054204
vn 0 -0.06264798029094827 -0.9980356860180225
vn 0 0.06264798029094827 0.9980356860180225
vn -1 0 0
vn 1 0 0
vn 0 0.6614192996835306 -0.7500163398261053
vn 0 -0.6614192996835306 0.7500163398261053
vn 0 -0.31882398061996586 -0.9478139423861835
vn 0 0.31882398061996586 0.9478139423861835
vn 0 -0.5532723026444584 -0.833000455658038
vn 0 0.5532723026444584 0.833000455658038
vn 0 0.833000455658038 -0.5532723026444584
vn 0 -0.833000455658038 0.5532723026444584
vn 0 -0.7500163398261053 -0.6614192996835306
vn 0 0.7500163398261053 0.6614192996835306
vn 0 0.9478139423861835 -0.31882398061996586
vn 0 -0.9478139423861835 0.31882398061996586
vn 0 -0.8956482391054204 -0.44476311873553487
vn 0 0.8956482391054204 0.44476311873553487
vn 0 0.9980356860180225 -0.06264798029094827
vn 0 -0.9980356860180225 0.06264798029094827
vn 0 -0.9802428099049613 -0.19779796164173757
vn 0 0.9802428099049613 0.19779796164173757
usemtl material_0_0
f 1//1 2//2 3//2
f 2//2 1//1 4//1
f 3//3 2//3 1//4
f 4//4 1//4 2//3
f 5//5 3//2 2//2
f 2//3 3//3 5//6
f 6//7 1//7 3//7
f 3//8 1//8 6//8
f 7//9 4//1 1//1
f 1//4 4//4 7//10
f 2//7 8//7 4//7
f 3//2 5//5 9//5
f 9//6 5//6 3//3
f 5//7 8//7 2//7
f 10//7 1//7 6//7
f 6//8 1//8 10//8
f 6//7 3//7 9//7
f 9//8 3//8 6//8
f 4//1 7//9 11//9
f 11//10 7//10 4//4
f 10//7 7//7 1//7
f 1//8 7//8 10//8
f 8//7 12//7 4//7
f 8//11 9//5 5//5
f 5//6 9//6 8//12
f 6//11 12//13 10//13
f 10//14 12//14 6//12
f 9//5 8//11 6//11
f 6//12 8//12 9//6
f 7//9 13//15 11//9
f 11//10 13//16 7//10
f 4//7 12//7 11//7
f 14//7 7//7 10//7
f 10//8 7//8 14//8
f 12//13 6//11 8//11
f 8//12 6//12 12//14
f 15//17 10//13 12//13
f 12//14 10//14 15//18
f 13//15 7//9 16//15
f 16//16 7//10 13//16
f 11//7 17//7 13//7
f 11//7 12//7 18//7
f 14//7 16//7 7//7
f 7//8 16//8 14//8
f 10//13 15//17 14//17
f 14//18 15//18 10//14
f 12//7 15//7 19//7
f 16//15 20//19 13//15
f 13//16 20//20 16//16
f 17//7 21//7 13//7
f 22//7 17//7 11//7
f 18//7 12//7 19//7
f 18//7 22//7 11//7
f 23//7 16//7 14//7
f 14//8 16//8 23//8
f 15//17 23//21 14//17
f 14//18 23//22 15//18
f 19//7 15//7 24//7
f 20//19 16//15 25//19
f 25//20 16//16 20//20
f 13//7 26//7 20//7
f 21//7 26//7 13//7
f 21//9 27//1 17//1
f 17//4 27//4 21//10
f 17//1 28//9 21//9
f 21//10 28//10 17//4
f 17//1 29//2 22//2
f 22//3 29//3 17//4
f 22//2 30//1 17//1
f 17//4 30//4 22//3
f 19//11 31//5 18//5
f 18//6 31//6 19//12
f 18//5 32//11 19//11
f 19//12 32//12 18//6
f 22//2 33//5 18//5
f 18//6 33//6 22//3
f 18//5 34//2 22//2
f 22//3 34//3 18//6
f 23//7 25//7 16//7
f 16//8 25//8 23//8
f 23//21 15//17 35//21
f 35//22 15//18 23//22
f 24//7 15//7 36//7
f 19//11 37//13 24//13
f 24//14 37//14 19//12
f 24//13 38//11 19//11
f 19//12 38//12 24//14
f 25//19 39//23 20//19
f 20//20 39//24 25//20
f 26//7 40//7 20//7
f 28//9 26//15 21//9
f 21//10 26//16 28//10
f 41//15 21//9 26//15
f 26//16 21//10 41//16
f 27//1 21//9 42//9
f 42//10 21//10 27//4
f 29//2 17//1 27//1
f 27//4 17//4 29//3
f 28//9 17//1 30//1
f 30//4 17//4 28//10
f 33//5 22//2 29//2
f 29//3 22//3 33//6
f 30//1 22//2 34//2
f 34//3 22//3 30//4
f 31//5 19//11 38//11
f 38//12 19//12 31//6
f 34//2 18//5 31//5
f 31//6 18//6 34//3
f 32//11 18//5 33//5
f 33//6 18//6 32//12
f 37//13 19//11 32//11
f 32//12 19//12 37//14
f 43//7 25//7 23//7
f 23//8 25//8 43//8
f 15//7 35//7 36//7
f 44//25 23//21 35//21
f 35//22 23//22 44//26
f 24//13 45//17 36//17
f 36//18 45//18 24//14
f 36//17 46//13 24//13
f 24//14 46//14 36//18
f 45//17 24//13 37//13
f 37//14 24//14 45//18
f 38//11 24//13 46//13
f 46//14 24//14 38//12
f 39//23 25//19 47//23
f 47//24 25//20 39//24
f 20//7 40//7 39//7
f 48//19 26//15 40//19
f 40//20 26//16 48//20
f 49//15 40//19 26//15
f 26//16 40//20 49//16
f 26//15 28//9 49//15
f 49//16 28//10 26//16
f 21//9 41//15 42//9
f 42//10 41//16 21//10
f 26//15 48//19 41//15
f 41//16 48//20 26//16
f 27//7 37//7 42//7
f 29//7 32//7 27//7
f 33//7 32//7 29//7
f 32//7 37//7 27//7
f 43//7 47//7 25//7
f 25//8 47//8 43//8
f 23//21 44//25 43//25
f 43//26 44//26 23//22
f 36//7 35//7 50//7
f 35//7 44//7 50//7
f 45//17 50//21 36//17
f 36//18 50//22 45//18
f 46//13 36//17 51//17
f 51//18 36//18 46//14
f 37//7 45//7 42//7
f 47//23 52//26 39//23
f 39//24 52//25 47//24
f 40//7 53//7 39//7
f 40//19 54//23 48//19
f 48//20 54//24 40//20
f 40//19 49//15 55//19
f 55//20 49//16 40//20
f 42//7 45//7 41//7
f 41//7 56//7 48//7
f 57//7 47//7 43//7
f 43//8 47//8 57//8
f 58//24 43//25 44//25
f 44//26 43//26 58//23
f 59//21 36//17 50//21
f 50//22 36//18 59//22
f 50//7 44//7 60//7
f 50//21 45//17 56//21
f 56//22 45//18 50//22
f 36//17 59//21 51//17
f 51//18 59//22 36//18
f 52//26 47//23 61//26
f 61//25 47//24 52//25
f 39//7 62//7 52//7
f 53//7 62//7 39//7
f 54//23 40//19 53//23
f 53//24 40//20 54//24
f 55//19 53//23 40//19
f 40//20 53//24 55//20
f 48//7 63//7 54//7
f 45//7 56//7 41//7
f 56//7 63//7 48//7
f 57//7 61//7 47//7
f 47//8 61//8 57//8
f 43//25 58//24 57//24
f 57//23 58//23 43//26
f 44//7 58//7 64//7
f 60//25 59//21 50//21
f 50//22 59//22 60//26
f 60//7 44//7 64//7
f 50//21 63//25 60//25
f 60//26 63//26 50//22
f 63//25 50//21 56//21
f 56//22 50//22 63//26
f 61//26 65//22 52//26
f 52//25 65//21 61//25
f 62//7 66//7 52//7
f 67//26 53//23 62//26
f 62//25 53//24 67//25
f 68//23 62//26 53//23
f 53//24 62//25 68//24
f 53//23 67//26 54//23
f 54//24 67//25 53//24
f 53//23 55//19 68//23
f 68//24 55//20 53//24
f 63//7 69//7 54//7
f 70//7 61//7 57//7
f 57//8 61//8 70//8
f 71//20 57//24 58//24
f 58//23 57//23 71//19
f 64//7 58//7 72//7
f 59//21 60//25 73//25
f 73//26 60//26 59//22
f 60//25 69//24 64//24
f 64//23 69//23 60//26
f 64//24 73//25 60//25
f 60//26 73//26 64//23
f 69//24 60//25 63//25
f 63//26 60//26 69//23
f 65//22 61//26 74//22
f 74//21 61//25 65//21
f 52//7 66//7 65//7
f 75//22 62//26 66//22
f 66//21 62//25 75//21
f 76//26 66//22 62//26
f 62//25 66//21 76//25
f 62//26 75//22 67//26
f 67//25 75//21 62//25
f 62//26 68//23 76//26
f 76//25 68//24 62//25
f 54//7 69//7 67//7
f 70//7 74//7 61//7
f 61//8 74//8 70//8
f 57//24 71//20 70//20
f 70//19 71//19 57//23
f 58//7 71//7 72//7
f 72//20 77//24 64//24
f 64//23 77//23 72//19
f 64//24 78//20 72//20
f 72//19 78//19 64//23
f 78//20 64//24 69//24
f 69//23 64//23 78//19
f 73//25 64//24 77//24
f 77//23 64//23 73//26
f 79//18 65//22 74//22
f 74//21 65//21 79//17
f 66//7 80//7 65//7
f 80//18 75//22 66//22
f 66//21 75//21 80//17
f 66//22 76//26 81//22
f 81//21 76//25 66//21
f 67//7 78//7 75//7
f 69//7 78//7 67//7
f 82//7 74//7 70//7
f 70//8 74//8 82//8
f 83//16 70//20 71//20
f 71//19 70//19 83//15
f 72//7 71//7 84//7
f 77//24 72//20 85//20
f 85//19 72//19 77//23
f 86//16 72//20 78//20
f 78//19 72//19 86//15
f 65//22 79//18 87//18
f 87//17 79//17 65//21
f 82//7 79//7 74//7
f 74//8 79//8 82//8
f 80//7 88//7 65//7
f 66//22 89//18 80//18
f 80//17 89//17 66//21
f 75//22 80//18 90//18
f 90//17 80//17 75//21
f 89//18 66//22 81//22
f 81//21 66//21 89//17
f 78//7 86//7 75//7
f 70//20 83//16 82//16
f 82//15 83//15 70//19
f 71//7 83//7 91//7
f 84//7 71//7 91//7
f 72//20 86//16 84//16
f 84//15 86//15 72//19
f 84//16 85//20 72//20
f 72//19 85//19 84//15
f 79//18 92//14 87//18
f 87//17 92//13 79//17
f 65//7 88//7 87//7
f 93//7 79//7 82//7
f 82//8 79//8 93//8
f 89//18 88//14 80//18
f 80//17 88//13 89//17
f 94//14 80//18 88//14
f 88//13 80//17 94//13
f 80//18 94//14 90//18
f 90//17 94//13 80//17
f 75//7 86//7 90//7
f 95//10 82//16 83//16
f 83//15 82//15 95//9
f 91//7 83//7 96//7
f 91//10 97//16 84//16
f 84//15 97//15 91//9
f 84//16 98//10 91//10
f 91//9 98//9 84//15
f 98//10 84//16 86//16
f 86//15 84//15 98//9
f 85//20 84//16 97//16
f 97//15 84//15 85//19
f 92//14 79//18 99//14
f 99//13 79//17 92//13
f 87//7 100//7 92//7
f 88//7 101//7 87//7
f 93//7 99//7 79//7
f 79//8 99//8 93//8
f 82//16 95//10 93//10
f 93//9 95//9 82//15
f 88//14 89//18 102//14
f 102//13 89//17 88//13
f 88//14 103//12 94//14
f 94//13 103//11 88//13
f 90//7 98//7 94//7
f 86//7 98//7 90//7
f 83//7 95//7 104//7
f 96//7 83//7 104//7
f 105//4 91//10 96//4
f 96//1 91//9 105//1
f 98//10 96//4 91//10
f 91//9 96//1 98//9
f 97//16 91//10 106//10
f 106//9 91//9 97//15
f 99//14 107//12 92//14
f 92//13 107//11 99//13
f 100//7 95//7 92//7
f 101//7 100//7 87//7
f 102//14 101//12 88//14
f 88//13 101//11 102//13
f 103//12 88//14 101//12
f 101//11 88//13 103//11
f 108//7 99//7 93//7
f 93//8 99//8 108//8
f 95//10 108//4 93//10
f 93//9 108//1 95//9
f 94//7 109//7 103//7
f 98//7 109//7 94//7
f 100//7 104//7 95//7
f 110//3 96//4 104//3
f 104//2 96//1 110//2
f 109//4 104//3 96//4
f 96//1 104//2 109//1
f 91//10 105//4 106//10
f 106//9 105//1 91//9
f 96//4 110//3 105//4
f 105//1 110//2 96//1
f 96//4 98//10 109//4
f 109//1 98//9 96//1
f 107//12 99//14 111//12
f 111//11 99//13 107//11
f 92//7 112//7 107//7
f 95//7 112//7 92//7
f 113//12 100//6 101//12
f 101//11 100//5 113//11
f 114//6 101//12 100//6
f 100//5 101//11 114//5
f 101//12 102//14 113//12
f 113//11 102//13 101//11
f 101//12 114//6 103//12
f 103//11 114//5 101//11
f 108//7 111//7 99//7
f 99//8 111//8 108//8
f 108//4 95//10 112//4
f 112//1 95//9 108//1
f 109//7 115//7 103//7
f 116//6 104//3 100//6
f 100//5 104//2 116//5
f 115//3 100//6 104//3
f 104//2 100//5 115//2
f 104//3 116//6 110//3
f 110//2 116//5 104//2
f 104//3 109//4 115//3
f 115//2 109//1 104//2
f 111//12 117//6 107//12
f 107//11 117//5 111//11
f 112//7 118//7 107//7
f 100//6 113//12 116//6
f 116//5 113//11 100//5
f 100//6 115//3 114//6
f 114//5 115//2 100//5
f 114//7 103//7 115//7
f 119//7 111//7 108//7
f 108//8 111//8 119//8
f 112//4 119//3 108//4
f 108//1 119//2 112//1
f 117//6 111//12 120//6
f 120//5 111//11 117//5
f 117//7 107//7 118//7
f 119//3 112//4 118//3
f 118//2 112//1 119//2
f 111//7 119//7 120//7
f 120//8 119//8 111//8
f 120//6 118//3 117//6
f 117//5 118//2 120//5
f 118//3 120//6 119//3
f 119//2 120//5 118//2
usemtl material_1_0
f 4//8 8//8 2//8
f 2//8 8//8 5//8
f 4//8 12//8 8//8
f 11//8 12//8 4//8
f 13//8 17//8 11//8
f 18//8 12//8 11//8
f 19//8 15//8 12//8
f 13//8 21//8 17//8
f 11//8 17//8 22//8
f 19//8 12//8 18//8
f 11//8 22//8 18//8
f 24//8 15//8 19//8
f 20//8 26//8 13//8
f 13//8 26//8 21//8
f 36//8 15//8 24//8
f 20//8 40//8 26//8
f 36//8 35//8 15//8
f 39//8 40//8 20//8
f 42//8 37//8 27//8
f 27//8 32//8 29//8
f 29//8 32//8 33//8
f 27//8 37//8 32//8
f 50//8 35//8 36//8
f 50//8 44//8 35//8
f 42//8 45//8 37//8
f 39//8 53//8 40//8
f 41//8 45//8 42//8
f 48//8 56//8 41//8
f 60//8 44//8 50//8
f 52//8 62//8 39//8
f 39//8 62//8 53//8
f 54//8 63//8 48//8
f 41//8 56//8 45//8
f 48//8 63//8 56//8
f 64//8 58//8 44//8
f 64//8 44//8 60//8
f 52//8 66//8 62//8
f 54//8 69//8 63//8
f 72//8 58//8 64//8
f 65//8 66//8 52//8
f 67//8 69//8 54//8
f 72//8 71//8 58//8
f 65//8 80//8 66//8
f 75//8 78//8 67//8
f 67//8 78//8 69//8
f 84//8 71//8 72//8
f 65//8 88//8 80//8
f 75//8 86//8 78//8
f 91//8 83//8 71//8
f 91//8 71//8 84//8
f 87//8 88//8 65//8
f 90//8 86//8 75//8
f 96//8 83//8 91//8
f 92//8 100//8 87//8
f 87//8 101//8 88//8
f 94//8 98//8 90//8
f 90//8 98//8 86//8
f 104//8 95//8 83//8
f 104//8 83//8 96//8
f 92//8 95//8 100//8
f 87//8 100//8 101//8
f 103//8 109//8 94//8
f 94//8 109//8 98//8
f 95//8 104//8 100//8
f 107//8 112//8 92//8
f 92//8 112//8 95//8
f 103//8 115//8 109//8
f 107//8 118//8 112//8
f 115//8 103//8 114//8
f 118//8 107//8 117//8
