# SSTK version 0.8.0
# 25
mtllib original-25.mtl
o Component_2_2/Component_2/mesh1/mesh1-geometry#mesh1-geometry
v 0.398157 -0.624289 -0.250116
v -0.412773 -0.629744 -0.231461
v -0.412773 -0.624289 -0.250116
v 0.398157 -0.629744 -0.231461
v -0.412773 -0.605634 -0.244661
v 0.398157 -0.611089 -0.226006
v 0.398157 -0.605634 -0.244661
v -0.412773 -0.611089 -0.226006
vn 0 -0.4802234028312081 -0.8771462155041285
vn 0 -0.8771462155041285 0.4802234028312081
vn 0 0.4802234028312081 0.8771462155041285
vn 0 0.8771462155041285 -0.4802234028312081
usemtl material_0_0
f 1//1 2//2 3//1
f 2//2 1//1 4//2
f 3//3 2//4 1//3
f 4//4 1//3 2//4
f 5//4 1//1 3//1
f 3//3 1//3 5//2
f 6//3 2//2 4//2
f 4//4 2//4 6//1
f 1//1 5//4 7//4
f 7//2 5//2 1//3
f 2//2 6//3 8//3
f 8//1 6//1 2//4
f 5//4 6//3 7//4
f 7//2 6//1 5//2
f 6//3 5//4 8//3
f 8//1 5//2 6//1
