# SSTK version 0.8.0
# 4
mtllib original-4.mtl
o Group2/mesh4/mesh4-geometry#mesh4-geometry
v 0.387553 -0.066170 -0.128690
v 0.359293 -0.008448 -0.114135
v 0.398157 -0.066170 -0.079855
v 0.353953 -0.066170 -0.165681
v 0.367452 -0.008448 -0.076560
v 0.336756 -0.008448 -0.138945
v 0.301564 -0.008448 -0.150210
v 0.398157 -0.066170 0.054831
v 0.306358 -0.066170 -0.180915
v 0.150182 -0.008448 -0.150210
v 0.367452 -0.008448 0.056291
v 0.152767 -0.066170 -0.180915
v 0.398157 -0.066170 0.189516
v -0.000824 -0.066170 -0.180915
v 0.367452 -0.008448 0.189143
v -0.001200 -0.008448 -0.150210
v 0.367452 -0.008448 0.321994
v -0.152582 -0.008448 -0.150210
v -0.007235 -0.008448 0.534328
v 0.141172 -0.008448 0.533492
v 0.398157 -0.066170 0.324202
v -0.154416 -0.066170 -0.180915
v -0.381752 -0.008448 0.104463
v 0.289580 -0.008448 0.532655
v 0.367452 -0.008448 0.454845
v -0.303965 -0.008448 -0.150210
v -0.381752 -0.008448 -0.072423
v -0.381752 -0.008448 0.281349
v -0.007150 -0.066170 0.565033
v 0.143278 -0.066170 0.564185
v 0.398157 -0.066170 0.458888
v -0.308007 -0.066170 -0.180915
v -0.412457 -0.066170 0.058221
v -0.412457 -0.066170 0.192906
v -0.155642 -0.008448 0.535164
v 0.293707 -0.066170 0.563338
v 0.330038 -0.008448 0.521815
v 0.356634 -0.008448 0.495219
v -0.344338 -0.008448 -0.139392
v -0.370934 -0.008448 -0.112796
v -0.412457 -0.066170 -0.076465
v -0.412457 -0.066170 0.327592
v -0.381752 -0.008448 0.458235
v -0.157579 -0.066170 0.565880
v 0.384163 -0.066170 0.511113
v -0.360232 -0.066170 -0.166922
v -0.304050 -0.008448 0.536000
v 0.345932 -0.066170 0.549344
v -0.398463 -0.066170 -0.128690
v -0.412457 -0.066170 0.462278
v -0.370934 -0.008448 0.498609
v -0.308007 -0.066170 0.566728
v -0.344338 -0.008448 0.525205
v -0.398463 -0.066170 0.514503
v -0.360232 -0.066170 0.552734
vn 0.7787337056363788 0.48239481765334635 -0.40108484838875264
vn 0.5871133496654404 0.7509044472140421 -0.3023911800942614
vn 0.8729091100943591 0.47149605946673706 -0.1253840158138718
vn -0.8729091100943591 -0.47149605946673706 0.1253840158138718
vn -0.5871133496654404 -0.7509044472140421 0.3023911800942614
vn -0.7787337056363788 -0.48239481765334635 0.40108484838875264
vn 0.5380177166710677 0.4809247467371599 -0.6922776354352704
vn -0.5380177166710677 -0.4809247467371599 0.6922776354352704
vn 0.5117380270921795 0.8583670454432402 -0.036472001930882354
vn -0.5117380270921795 -0.8583670454432402 0.036472001930882354
vn 0.3384450916162526 0.6840781851782797 -0.6461361749074708
vn -0.3384450916162526 -0.6840781851782797 0.6461361749074708
vn 0.05247699023248497 0.859628839997729 -0.5082169054058502
vn -0.05247699023248497 -0.859628839997729 0.5082169054058502
vn 0.8828622090317786 0.4696321111929296 0
vn -0.8828622090317786 -0.4696321111929296 0
vn 0.1809270007723774 0.47355300202159795 -0.8619820036798012
vn -0.1809270007723774 -0.47355300202159795 0.8619820036798012
vn 0 0.8981066080964484 -0.43977780809573874
vn 0 -0.8981066080964484 0.43977780809573874
vn 0.6135398268296353 0.7896637771190096 0
vn -0.6135398268296353 -0.7896637771190096 0
vn 0 0.4696321111929298 -0.8828622090317785
vn 0 -0.4696321111929298 0.8828622090317785
vn 0.28497011908960757 0.9585364005743626 0
vn -0.28497011908960757 -0.9585364005743626 0
vn 0 0.9416391300888672 -0.33662404650511984
vn 0 -0.9416391300888672 0.33662404650511984
vn 0.5149600918184225 0.8572141528430116 0
vn -0.5149600918184225 -0.8572141528430116 0
vn 0 0.8572141528430117 -0.5149600918184223
vn 0 -0.8572141528430117 0.5149600918184223
vn 0.0016050008903375759 0.958536531726242 0.28496515807791134
vn -0.0016050008903375759 -0.958536531726242 -0.28496515807791134
vn 0.002901000261233635 0.8572140771917025 0.5149520463711766
vn -0.002901000261233635 -0.8572140771917025 -0.5149520463711766
vn -0.43977780809573896 0.8981066080964483 0
vn 0.43977780809573896 -0.8981066080964483 0
vn 0.04645100030578693 0.8588670056539214 0.5100880033579095
vn -0.04645100030578693 -0.8588670056539214 -0.5100880033579095
vn 0.5101367032181116 0.85894050029476 0.04451697410138996
vn -0.5101367032181116 -0.85894050029476 -0.04451697410138996
vn -0.04451697410138977 0.8589405002947601 -0.5101367032181113
vn 0.04451697410138977 -0.8589405002947601 0.5101367032181113
vn -0.5101367032181116 0.85894050029476 -0.044516974101389585
vn 0.5101367032181116 -0.85894050029476 0.044516974101389585
vn -0.5149600918184225 0.8572141528430116 0
vn 0.5149600918184225 -0.8572141528430116 0
vn 0.004974001126104035 0.46963210632378144 0.8828481998750896
vn -0.004974001126104035 -0.46963210632378144 -0.8828481998750896
vn 0.8679447885916758 0.47242888492885693 0.15324096267456702
vn -0.8679447885916758 -0.47242888492885693 -0.15324096267456702
vn -0.1532409626745669 0.47242888492885715 -0.8679447885916757
vn 0.1532409626745669 -0.47242888492885715 0.8679447885916757
vn -0.8828622090317786 0.4696321111929296 0
vn 0.8828622090317786 -0.4696321111929296 0
vn 0.15486998124354287 0.47230894279819496 0.8677208949094612
vn -0.15486998124354287 -0.47230894279819496 -0.8677208949094612
vn 0.25333206665610886 0.798665210142821 0.5458541436237967
vn -0.25333206665610886 -0.798665210142821 -0.5458541436237967
vn 0.6618578545670113 0.6449228582882137 0.3821239160342018
vn -0.6618578545670113 -0.6449228582882137 -0.3821239160342018
vn -0.38212391603420165 0.6449228582882139 -0.6618578545670112
vn 0.38212391603420165 -0.6449228582882139 0.6618578545670112
vn -0.5458541436237965 0.7986652101428212 -0.2533320666561087
vn 0.5458541436237965 -0.7986652101428212 0.2533320666561087
vn -0.8679447885916758 0.47242888492885704 -0.1532409626745668
vn 0.8679447885916758 -0.47242888492885704 0.1532409626745668
vn -0.5101367032181116 0.85894050029476 0.04451697410138996
vn 0.5101367032181116 -0.85894050029476 -0.04451697410138996
vn 0.758598108419608 0.48239506894439044 0.43797706259612434
vn -0.758598108419608 -0.48239506894439044 -0.43797706259612434
vn -0.43797706259612423 0.4823950689443907 -0.7585981084196078
vn 0.43797706259612423 -0.4823950689443907 0.7585981084196078
vn -0.04258197304655639 0.8590154562622865 0.5101756770701227
vn 0.04258197304655639 -0.8590154562622865 -0.5101756770701227
vn 0.5041918730866023 0.4809248789432878 0.7172878194468435
vn -0.5041918730866023 -0.4809248789432878 -0.7172878194468435
vn -0.7172878194468434 0.48092487894328806 -0.5041918730866022
vn 0.7172878194468434 -0.48092487894328806 0.5041918730866022
vn -0.8679447885916758 0.47242888492885693 0.15324096267456702
vn 0.8679447885916758 -0.47242888492885693 -0.15324096267456702
vn -0.5458541436237965 0.798665210142821 0.253332066656109
vn 0.5458541436237965 -0.798665210142821 -0.253332066656109
vn -0.15161302423792128 0.47255107554532866 0.8681641387908076
vn 0.15161302423792128 -0.47255107554532866 -0.8681641387908076
vn -0.38212391603420165 0.6449228582882137 0.6618578545670114
vn 0.38212391603420165 -0.6449228582882137 -0.6618578545670114
vn -0.7172878194468434 0.48092487894328784 0.5041918730866024
vn 0.7172878194468434 -0.48092487894328784 -0.5041918730866024
vn -0.43797706259612423 0.4823950689443904 0.7585981084196081
vn 0.43797706259612423 -0.4823950689443904 -0.7585981084196081
usemtl material_0_0
f 1//1 2//2 3//3
f 3//4 2//5 1//6
f 4//7 2//2 1//1
f 1//6 2//5 4//8
f 2//2 5//9 3//3
f 3//4 5//10 2//5
f 4//7 6//11 2//2
f 2//5 6//12 4//8
f 5//9 2//2 7//13
f 7//14 2//5 5//10
f 3//3 5//9 8//15
f 8//16 5//10 3//4
f 6//11 4//7 9//17
f 9//18 4//8 6//12
f 2//2 6//11 7//13
f 7//14 6//12 2//5
f 5//9 7//13 10//19
f 10//20 7//14 5//10
f 5//9 11//21 8//15
f 8//16 11//22 5//10
f 6//11 9//17 7//13
f 7//14 9//18 6//12
f 7//13 12//23 10//19
f 10//20 12//24 7//14
f 5//9 10//19 11//21
f 11//22 10//20 5//10
f 8//15 11//21 13//15
f 13//16 11//22 8//16
f 7//13 9//17 12//23
f 12//24 9//18 7//14
f 10//19 12//23 14//23
f 14//24 12//24 10//20
f 11//21 10//19 15//25
f 15//26 10//20 11//22
f 11//21 15//25 13//15
f 13//16 15//26 11//22
f 10//19 14//23 16//27
f 16//28 14//24 10//20
f 15//25 10//19 16//27
f 16//28 10//20 15//26
f 15//25 17//29 13//15
f 13//16 17//30 15//26
f 16//27 14//23 18//31
f 18//32 14//24 16//28
f 15//25 16//27 19//33
f 19//34 16//28 15//26
f 15//25 20//35 17//29
f 17//30 20//36 15//26
f 13//15 17//29 21//15
f 21//16 17//30 13//16
f 18//31 14//23 22//23
f 22//24 14//24 18//32
f 16//27 18//31 23//37
f 23//38 18//32 16//28
f 16//27 23//37 19//33
f 19//34 23//38 16//28
f 15//25 19//33 20//35
f 20//36 19//34 15//26
f 17//29 20//35 24//39
f 24//40 20//36 17//30
f 17//29 25//41 21//15
f 21//16 25//42 17//30
f 18//31 22//23 26//43
f 26//44 22//24 18//32
f 18//31 27//45 23//37
f 23//38 27//46 18//32
f 19//33 23//37 28//47
f 28//48 23//38 19//34
f 19//33 29//49 20//35
f 20//36 29//50 19//34
f 20//35 30//49 24//39
f 24//40 30//50 20//36
f 17//29 24//39 25//41
f 25//42 24//40 17//30
f 21//15 25//41 31//51
f 31//52 25//42 21//16
f 26//43 22//23 32//53
f 32//54 22//24 26//44
f 18//31 26//43 27//45
f 27//46 26//44 18//32
f 27//45 33//55 23//37
f 23//38 33//56 27//46
f 23//37 34//55 28//47
f 28//48 34//56 23//38
f 19//33 28//47 35//35
f 35//36 28//48 19//34
f 35//35 29//49 19//33
f 19//34 29//50 35//36
f 20//35 29//49 30//49
f 30//50 29//50 20//36
f 24//39 30//49 36//57
f 36//58 30//50 24//40
f 25//41 24//39 37//59
f 37//60 24//40 25//42
f 25//41 38//61 31//51
f 31//52 38//62 25//42
f 26//43 32//53 39//63
f 39//64 32//54 26//44
f 26//43 40//65 27//45
f 27//46 40//66 26//44
f 41//67 33//55 27//45
f 27//46 33//56 41//68
f 33//55 34//55 23//37
f 23//38 34//56 33//56
f 34//55 42//55 28//47
f 28//48 42//56 34//56
f 35//35 28//47 43//69
f 43//70 28//48 35//36
f 35//35 44//49 29//49
f 29//50 44//50 35//36
f 24//39 36//57 37//59
f 37//60 36//58 24//40
f 25//41 37//59 38//61
f 38//62 37//60 25//42
f 31//51 38//61 45//71
f 45//72 38//62 31//52
f 39//63 32//53 46//73
f 46//74 32//54 39//64
f 26//43 39//63 40//65
f 40//66 39//64 26//44
f 40//65 41//67 27//45
f 27//46 41//68 40//66
f 28//47 42//55 43//69
f 43//70 42//56 28//48
f 35//35 43//69 47//75
f 47//76 43//70 35//36
f 47//75 44//49 35//35
f 35//36 44//50 47//76
f 37//59 36//57 48//77
f 48//78 36//58 37//60
f 37//59 48//77 38//61
f 38//62 48//78 37//60
f 38//61 48//77 45//71
f 45//72 48//78 38//62
f 46//73 49//79 39//63
f 39//64 49//80 46//74
f 39//63 49//79 40//65
f 40//66 49//80 39//64
f 49//79 41//67 40//65
f 40//66 41//68 49//80
f 42//55 50//81 43//69
f 43//70 50//82 42//56
f 47//75 43//69 51//83
f 51//84 43//70 47//76
f 47//75 52//85 44//49
f 44//50 52//86 47//76
f 43//69 50//81 51//83
f 51//84 50//82 43//70
f 47//75 51//83 53//87
f 53//88 51//84 47//76
f 53//87 52//85 47//75
f 47//76 52//86 53//88
f 50//81 54//89 51//83
f 51//84 54//90 50//82
f 51//83 54//89 53//87
f 53//88 54//90 51//84
f 53//87 55//91 52//85
f 52//86 55//92 53//88
f 54//89 55//91 53//87
f 53//88 55//92 54//90
