# SSTK version 0.8.0
# 7
mtllib original-7.mtl
o Group5/mesh9/mesh9-geometry#mesh9-geometry
v 0.436063 -0.086847 0.010107
v 0.436111 -0.120222 -0.006782
v 0.436063 -0.120350 -0.006524
v 0.436111 -0.086718 0.009849
v 0.434708 -0.120222 -0.006782
v 0.425642 -0.134075 0.021125
v 0.436111 -0.069205 -0.103631
v 0.434708 -0.086718 0.009849
v 0.424287 -0.133947 0.020867
v 0.425642 -0.100572 0.037757
v 0.434708 -0.072733 -0.102448
v 0.436111 -0.072733 -0.102448
v 0.436111 -0.065631 -0.104325
v 0.424287 -0.100444 0.037499
v 0.434708 -0.039230 -0.085816
v 0.436111 -0.062069 -0.104519
v 0.434708 -0.069205 -0.103631
v 0.436111 -0.039230 -0.085816
v 0.436111 -0.058577 -0.104210
v 0.434708 -0.065631 -0.104325
v 0.424287 -0.139278 0.037532
v 0.425689 -0.100444 0.037499
v 0.436111 -0.040420 -0.089342
v 0.436111 -0.055209 -0.103402
v 0.434708 -0.062069 -0.104519
v 0.424287 -0.140469 0.034006
v 0.424287 -0.137671 0.040798
v 0.425689 -0.133947 0.020867
v 0.425689 -0.106966 0.050637
v 0.434708 -0.040420 -0.089342
v 0.436111 -0.042028 -0.092608
v 0.436111 -0.052021 -0.102109
v 0.434708 -0.055209 -0.103402
v 0.434708 -0.058577 -0.104210
v 0.425689 -0.140469 0.034006
v 0.425689 -0.139278 0.037532
v 0.424287 -0.135672 0.043752
v 0.424287 -0.106966 0.050637
v 0.425689 -0.110494 0.051820
v 0.436111 -0.044027 -0.095563
v 0.436111 -0.049064 -0.100351
v 0.425689 -0.137671 0.040798
v 0.424287 -0.133314 0.046347
v 0.424287 -0.110494 0.051820
v 0.425689 -0.114068 0.052514
v 0.434708 -0.042028 -0.092608
v 0.436111 -0.046385 -0.098158
v 0.434708 -0.049064 -0.100351
v 0.434708 -0.052021 -0.102109
v 0.425689 -0.135672 0.043752
v 0.424287 -0.130634 0.048541
v 0.424287 -0.114068 0.052514
v 0.425689 -0.117630 0.052708
v 0.434708 -0.044027 -0.095563
v 0.425689 -0.133314 0.046347
v 0.425689 -0.130634 0.048541
v 0.424287 -0.127677 0.050298
v 0.424287 -0.117630 0.052708
v 0.425689 -0.121122 0.052399
v 0.434708 -0.046385 -0.098158
v 0.425689 -0.127677 0.050298
v 0.424287 -0.124489 0.051591
v 0.424287 -0.121122 0.052399
v 0.425689 -0.124489 0.051591
vn -0.9945855807156289 0.04620698052066597 -0.09308296075930374
vn 0.9945855807156289 -0.04620698052066597 0.09308296075930374
vn -0.31987701588109463 -0.4212740209152027 0.848650042133354
vn 0.31987701588109463 0.4212740209152027 -0.848650042133354
vn -0.9781274010841574 0.09248703792459519 -0.18631407639866163
vn 0.9781274010841574 -0.09248703792459519 0.18631407639866163
vn 0 0.4446349399367158 -0.8957118790032168
vn 0 -0.4446349399367158 0.8957118790032168
vn -1 0 0
vn 1 0 0
vn 0 0.8957118790032168 0.4446349399367158
vn 0 -0.8957118790032168 -0.4446349399367158
vn 0 0.09253999702571805 0.9957089679974165
vn 0 0.15209693555920356 0.9883655812468886
vn 0 -0.15209693555920356 -0.9883655812468886
vn 0 -0.09253999702571805 -0.9957089679974165
vn 0 -0.02391799817601375 0.9997139237618191
vn 0 0.02391799817601375 -0.9997139237618191
vn 0 -0.1361940251441435 0.9906821828997615
vn 0 0.1361940251441435 -0.9906821828997615
vn 0 -0.8792204129589349 0.4764152237663278
vn 0 -0.8490613684260626 0.528294229238274
vn 0 0.8792204129589349 -0.4764152237663278
vn 0 0.8490613684260626 -0.528294229238274
vn 0 -0.2438561067532772 0.969811424555895
vn 0 0.2438561067532772 -0.969811424555895
vn 0 -0.3467059523085196 0.9379738709760751
vn 0 0.3467059523085196 -0.9379738709760751
vn 0 -0.7818414226596783 0.6234773370488219
vn 0 0.7818414226596783 -0.6234773370488219
vn 0 -0.7067651986261391 0.7074481988180862
vn 0 0.7067651986261391 -0.7074481988180862
vn 0 -0.5375059656974457 0.8432599461848383
vn 0 0.5375059656974457 -0.8432599461848383
vn 0 -0.6250487637950546 0.7805857050178886
vn 0 0.6250487637950546 -0.7805857050178886
usemtl material_0_0
f 1//1 2//1 3//1
f 3//2 2//2 1//2
f 1//1 4//1 2//1
f 2//2 4//2 1//2
f 1//3 5//3 3//3
f 3//4 5//4 1//4
f 6//5 1//5 3//5
f 3//6 1//6 6//6
f 5//7 4//7 2//7
f 2//8 4//8 5//8
f 7//9 2//9 4//9
f 4//10 2//10 7//10
f 5//3 1//3 8//3
f 8//4 1//4 5//4
f 9//11 3//11 5//11
f 5//12 3//12 9//12
f 1//5 6//5 10//5
f 10//6 6//6 1//6
f 3//11 9//11 6//11
f 6//12 9//12 3//12
f 4//7 5//7 8//7
f 8//8 5//8 4//8
f 2//11 11//11 5//11
f 5//12 11//12 2//12
f 2//9 7//9 12//9
f 12//10 7//10 2//10
f 7//9 4//9 13//9
f 13//10 4//10 7//10
f 1//12 14//12 8//12
f 8//11 14//11 1//11
f 9//4 10//4 6//4
f 6//3 10//3 9//3
f 14//12 1//12 10//12
f 10//11 1//11 14//11
f 15//12 4//12 8//12
f 8//11 4//11 15//11
f 11//11 2//11 12//11
f 12//12 2//12 11//12
f 7//13 11//14 12//14
f 12//15 11//15 7//16
f 13//9 4//9 16//9
f 16//10 4//10 13//10
f 13//17 17//13 7//13
f 7//16 17//16 13//18
f 10//4 9//4 14//4
f 14//3 9//3 10//3
f 4//12 15//12 18//12
f 18//11 15//11 4//11
f 11//14 7//13 17//13
f 17//16 7//16 11//15
f 16//9 4//9 19//9
f 19//10 4//10 16//10
f 16//19 20//17 13//17
f 13//18 20//18 16//20
f 17//13 13//17 20//17
f 20//18 13//18 17//16
f 9//9 21//9 14//9
f 14//10 21//10 9//10
f 22//7 9//7 14//7
f 14//8 9//8 22//8
f 15//21 23//22 18//21
f 18//23 23//24 15//23
f 23//9 4//9 18//9
f 18//10 4//10 23//10
f 19//9 4//9 24//9
f 24//10 4//10 19//10
f 19//25 25//19 16//19
f 16//20 25//20 19//26
f 20//17 16//19 25//19
f 25//20 16//20 20//18
f 21//9 9//9 26//9
f 26//10 9//10 21//10
f 14//9 21//9 27//9
f 27//10 21//10 14//10
f 9//7 22//7 28//7
f 28//8 22//8 9//8
f 14//11 29//11 22//11
f 22//12 29//12 14//12
f 23//22 15//21 30//22
f 30//24 15//23 23//24
f 31//9 4//9 23//9
f 23//10 4//10 31//10
f 24//9 4//9 32//9
f 32//10 4//10 24//10
f 33//27 19//25 24//27
f 24//28 19//26 33//28
f 25//19 19//25 34//25
f 34//26 19//26 25//20
f 28//12 26//12 9//12
f 9//11 26//11 28//11
f 35//21 21//22 26//21
f 26//23 21//24 35//23
f 36//22 27//29 21//22
f 21//24 27//30 36//24
f 14//9 27//9 37//9
f 37//10 27//10 14//10
f 36//10 28//10 22//10
f 22//9 28//9 36//9
f 29//11 14//11 38//11
f 38//12 14//12 29//12
f 39//10 22//10 29//10
f 29//9 22//9 39//9
f 30//22 31//29 23//22
f 23//24 31//30 30//24
f 40//9 4//9 31//9
f 31//10 4//10 40//10
f 32//9 4//9 41//9
f 41//10 4//10 32//10
f 32//8 33//27 24//27
f 24//28 33//28 32//7
f 19//25 33//27 34//25
f 34//26 33//28 19//26
f 26//12 28//12 35//12
f 35//11 28//11 26//11
f 21//22 35//21 36//22
f 36//24 35//23 21//24
f 27//29 36//22 42//29
f 42//30 36//24 27//30
f 42//29 37//31 27//29
f 27//30 37//32 42//30
f 14//9 37//9 43//9
f 43//10 37//10 14//10
f 28//10 36//10 35//10
f 35//9 36//9 28//9
f 36//10 22//10 42//10
f 42//9 22//9 36//9
f 14//9 44//9 38//9
f 38//10 44//10 14//10
f 44//13 29//14 38//14
f 38//15 29//15 44//16
f 45//10 22//10 39//10
f 39//9 22//9 45//9
f 29//14 44//13 39//13
f 39//16 44//16 29//15
f 31//29 30//22 46//29
f 46//30 30//24 31//30
f 47//9 4//9 40//9
f 40//10 4//10 47//10
f 46//29 40//31 31//29
f 31//30 40//32 46//30
f 41//9 4//9 47//9
f 47//10 4//10 41//10
f 48//33 32//8 41//33
f 41//34 32//7 48//34
f 33//27 32//8 49//8
f 49//7 32//7 33//28
f 37//31 42//29 50//31
f 50//32 42//30 37//32
f 50//31 43//35 37//31
f 37//32 43//36 50//32
f 14//9 43//9 51//9
f 51//10 43//10 14//10
f 42//10 22//10 50//10
f 50//9 22//9 42//9
f 14//9 52//9 44//9
f 44//10 52//10 14//10
f 53//10 22//10 45//10
f 45//9 22//9 53//9
f 39//13 52//17 45//17
f 45//18 52//18 39//16
f 52//17 39//13 44//13
f 44//16 39//16 52//18
f 54//31 47//35 40//31
f 40//32 47//36 54//32
f 40//31 46//29 54//31
f 54//32 46//30 40//32
f 47//35 48//33 41//33
f 41//34 48//34 47//36
f 32//8 48//33 49//8
f 49//7 48//34 32//7
f 43//35 50//31 55//35
f 55//36 50//32 43//36
f 43//35 56//33 51//33
f 51//34 56//34 43//36
f 14//9 51//9 57//9
f 57//10 51//10 14//10
f 50//10 22//10 55//10
f 55//9 22//9 50//9
f 14//9 58//9 52//9
f 52//10 58//10 14//10
f 59//10 22//10 53//10
f 53//9 22//9 59//9
f 45//17 58//19 53//19
f 53//20 58//20 45//18
f 58//19 45//17 52//17
f 52//18 45//18 58//20
f 47//35 54//31 60//35
f 60//36 54//32 47//36
f 48//33 47//35 60//35
f 60//36 47//36 48//34
f 56//33 43//35 55//35
f 55//36 43//36 56//34
f 61//8 51//33 56//33
f 56//34 51//34 61//7
f 51//33 61//8 57//8
f 57//7 61//7 51//34
f 14//9 57//9 62//9
f 62//10 57//10 14//10
f 55//10 22//10 56//10
f 56//9 22//9 55//9
f 14//9 63//9 58//9
f 58//10 63//10 14//10
f 64//10 22//10 59//10
f 59//9 22//9 64//9
f 58//19 59//25 53//19
f 53//20 59//26 58//20
f 56//10 22//10 61//10
f 61//9 22//9 56//9
f 64//27 57//8 61//8
f 61//7 57//7 64//28
f 57//8 64//27 62//27
f 62//28 64//28 57//7
f 14//9 62//9 63//9
f 63//10 62//10 14//10
f 59//25 58//19 63//25
f 63//26 58//20 59//26
f 61//10 22//10 64//10
f 64//9 22//9 61//9
f 59//25 62//27 64//27
f 64//28 62//28 59//26
f 62//27 59//25 63//25
f 63//26 59//26 62//28
