# SSTK version 0.8.0
# 14
mtllib original-14.mtl
o Group13/mesh23/mesh23-geometry#mesh23-geometry
v -0.431383 -0.846620 -0.289556
v -0.437548 -0.833185 -0.293330
v -0.431383 -0.843557 -0.301751
v -0.437548 -0.836222 -0.281241
v -0.437548 -0.830148 -0.305419
v -0.418835 -0.846620 -0.289556
v -0.425109 -0.836222 -0.281241
v -0.425109 -0.830148 -0.305419
v -0.418835 -0.843557 -0.301751
v -0.412670 -0.836222 -0.281241
v -0.412670 -0.833185 -0.293330
v -0.412670 -0.830148 -0.305419
vn -0.4189010523456693 -0.8708781088245 0.25708603212534387
vn -0.8504576039245517 -0.5163007595482081 -0.10077395306751523
vn -0.3536531531032025 -0.7820283385549994 -0.5131872221685473
vn 0.3536531531032025 0.7820283385549994 0.5131872221685473
vn 0.8504576039245517 0.5163007595482081 0.10077395306751523
vn 0.4189010523456693 0.8708781088245 -0.25708603212534387
vn -0.5222290705108517 -0.761580102827791 0.3837610518150368
vn 0.5222290705108517 0.761580102827791 -0.3837610518150368
vn -0.5421509419069033 -0.5258959436486749 -0.6553669297754713
vn 0.5421509419069033 0.5258959436486749 0.6553669297754713
vn 0.34238480517865033 -0.9242994740617331 0.16865090403547026
vn -0.34238480517865033 0.9242994740617331 -0.16865090403547026
vn 0 -0.7062327419817993 0.7079797413435427
vn 0 0.7062327419817993 -0.7079797413435427
vn 0 -0.31582603762041 -0.9488171130207292
vn 0 0.31582603762041 0.9488171130207292
vn 0.4344139723224007 -0.6910019559745393 -0.5777549631897883
vn -0.4344139723224007 0.6910019559745393 0.5777549631897883
vn 0.5222290705108517 -0.761580102827791 0.3837610518150368
vn -0.5222290705108517 0.761580102827791 -0.3837610518150368
vn 0.8504576039245517 -0.5163007595482081 -0.10077395306751523
vn -0.8504576039245517 0.5163007595482081 0.10077395306751523
vn 0.5421509419069033 -0.5258959436486749 -0.6553669297754713
vn -0.5421509419069033 0.5258959436486749 0.6553669297754713
usemtl material_0_0
f 1//1 2//2 3//3
f 3//4 2//5 1//6
f 4//7 2//2 1//1
f 1//6 2//5 4//8
f 2//2 5//9 3//3
f 3//4 5//10 2//5
f 6//11 1//1 3//3
f 3//4 1//6 6//12
f 1//1 7//13 4//7
f 4//8 7//14 1//6
f 3//3 5//9 8//15
f 8//16 5//10 3//4
f 6//11 7//13 1//1
f 1//6 7//14 6//12
f 6//11 3//3 9//17
f 9//18 3//4 6//12
f 3//3 8//15 9//17
f 9//18 8//16 3//4
f 6//11 10//19 7//13
f 7//14 10//20 6//12
f 6//11 9//17 11//21
f 11//22 9//18 6//12
f 9//17 8//15 12//23
f 12//24 8//16 9//18
f 10//19 6//11 11//21
f 11//22 6//12 10//20
f 11//21 9//17 12//23
f 12//24 9//18 11//22
