# SSTK version 0.8.0
# 19
mtllib original-19.mtl
o Group19/mesh27/mesh27-geometry#mesh27-geometry
v 0.404322 0.049144 -0.071651
v 0.398157 0.036929 -0.068329
v 0.404322 0.046003 -0.059502
v 0.398157 0.040043 -0.080372
v 0.398157 0.033814 -0.056286
v 0.416870 0.049144 -0.071651
v 0.410596 0.040043 -0.080372
v 0.410596 0.033814 -0.056286
v 0.416870 0.046003 -0.059502
v 0.423035 0.040043 -0.080372
v 0.423035 0.036929 -0.068329
v 0.423035 0.033814 -0.056286
vn -0.45305118067435507 0.856761341671779 -0.24638309825624388
vn -0.8722358972532341 0.47350694422230577 0.12245698557493542
vn -0.3741489693538333 0.7278359403836883 0.5746889529278045
vn 0.3741489693538333 -0.7278359403836883 -0.5746889529278045
vn 0.8722358972532341 -0.47350694422230577 -0.12245698557493542
vn 0.45305118067435507 -0.856761341671779 0.24638309825624388
vn -0.5540479035668627 0.7402698711545598 -0.380829933715794
vn 0.5540479035668627 -0.7402698711545598 0.380829933715794
vn -0.554048247626102 0.4628242068544657 0.6919713092693802
vn 0.554048247626102 -0.4628242068544657 -0.6919713092693802
vn 0.3741490966490847 0.9151942364102601 -0.14977303868892683
vn -0.3741490966490847 -0.9151942364102601 0.14977303868892683
vn 0 0.6918971097954314 -0.7219961145717674
vn 0 -0.6918971097954314 0.7219961145717674
vn 0 0.25511611205263335 0.9669104246884238
vn 0 -0.25511611205263335 -0.9669104246884238
vn 0.4530510687174321 0.6298910955399988 0.6308580956866707
vn -0.4530510687174321 -0.6298910955399988 -0.6308580956866707
vn 0.5540479035668627 0.7402698711545598 -0.380829933715794
vn -0.5540479035668627 -0.7402698711545598 0.380829933715794
vn 0.8722358972532341 0.47350694422230577 0.12245698557493542
vn -0.8722358972532341 -0.47350694422230577 -0.12245698557493542
vn 0.554048247626102 0.4628242068544657 0.6919713092693802
vn -0.554048247626102 -0.4628242068544657 -0.6919713092693802
usemtl material_0_0
f 1//1 2//2 3//3
f 3//4 2//5 1//6
f 4//7 2//2 1//1
f 1//6 2//5 4//8
f 2//2 5//9 3//3
f 3//4 5//10 2//5
f 6//11 1//1 3//3
f 3//4 1//6 6//12
f 1//1 7//13 4//7
f 4//8 7//14 1//6
f 3//3 5//9 8//15
f 8//16 5//10 3//4
f 6//11 7//13 1//1
f 1//6 7//14 6//12
f 6//11 3//3 9//17
f 9//18 3//4 6//12
f 3//3 8//15 9//17
f 9//18 8//16 3//4
f 6//11 10//19 7//13
f 7//14 10//20 6//12
f 6//11 9//17 11//21
f 11//22 9//18 6//12
f 9//17 8//15 12//23
f 12//24 8//16 9//18
f 10//19 6//11 11//21
f 11//22 6//12 10//20
f 11//21 9//17 12//23
f 12//24 9//18 11//22
